<?xml version="1.0" encoding="iso-8859-1"?>
<!-- Generator: Adobe Illustrator 19.0.0, SVG Export Plug-In . SVG Version: 6.00 Build 0)  -->
<svg version="1.1" id="Capa_1" xmlns="http://www.w3.org/2000/svg" xmlns:xlink="http://www.w3.org/1999/xlink" x="0px" y="0px"
	 viewBox="0 0 512 512" style="enable-background:new 0 0 512 512;" xml:space="preserve">
<g transform="matrix(1.25 0 0 -1.25 0 45)">
	<g>
		<g>
			<path style="fill:#3B88C3;" d="M409.6-328.089c0-25.134-20.378-45.511-45.511-45.511H45.511C20.378-373.6,0-353.222,0-328.089
				V-9.511C0,15.622,20.378,36,45.511,36h318.578C389.222,36,409.6,15.622,409.6-9.511V-328.089z"/>
			<path style="fill:#FFFFFF;" d="M186.47-128.853c8.465,1.764,17.647,3.527,26.465,3.527c42.689,0,73.023-33.86,73.023-75.139
				c0-58.914-32.449-97.724-93.491-97.724c-25.042,0-77.608,16.236-77.608,47.286c0,13.039,10.934,23.973,23.984,23.973
				c14.12,0,31.05-22.574,54.682-22.574c24.69,0,37.41,23.996,37.41,46.217c0,21.163-12.004,35.624-33.872,35.624
				c-20.469,0-23.643-11.639-41.643-11.639c-13.756,0-20.81,10.581-20.81,16.577c0,4.597,0.705,8.112,1.058,12.004l8.829,74.433
				c3.868,27.511,10.581,33.508,27.511,33.508h85.015c16.236,0,25.748-9.512,25.748-22.221c0-24.337-18.33-26.453-24.69-26.453
				h-66.321L186.47-128.853z"/>
		</g>
	</g>
</g>
<g>
</g>
<g>
</g>
<g>
</g>
<g>
</g>
<g>
</g>
<g>
</g>
<g>
</g>
<g>
</g>
<g>
</g>
<g>
</g>
<g>
</g>
<g>
</g>
<g>
</g>
<g>
</g>
<g>
</g>
</svg>
