<?xml version="1.0" ?><svg viewBox="0 0 128 128" xmlns="http://www.w3.org/2000/svg"><defs><style>.cls-1{fill:#7ad0cb;}.cls-2{fill:#4dbab4;}.cls-3{fill:#c3edf5;}.cls-4{fill:#4d91bb;}.cls-5{fill:#87dbec;}</style></defs><title/><g data-name="37 SEO Report" id="_37_SEO_Report"><rect class="cls-1" height="72" transform="translate(131 3) rotate(90)" width="90" x="19" y="31"/><polygon class="cls-2" points="92 30 90.67 102.67 36 104 94.16 106.13 92 30"/><rect class="cls-3" height="56" transform="translate(131 3) rotate(90)" width="74" x="27" y="39"/><rect class="cls-4" height="12" width="36" x="46" y="22"/><rect class="cls-2" height="24" width="9" x="44" y="76"/><rect class="cls-2" height="36" width="9" x="55" y="64"/><rect class="cls-2" height="20" width="9" x="66" y="80"/><rect class="cls-2" height="30" width="9" x="77" y="70"/><rect class="cls-4" height="8.07" width="18" x="55" y="16"/><polygon class="cls-2" points="82 22 83.31 30 82 30 82 22"/><polygon class="cls-5" points="46 34 82 35.47 82 34 46 34"/></g></svg>